<?xml version="1.0" encoding="iso-8859-1"?>
<!-- Uploaded to: SVG Repo, www.svgrepo.com, Generator: SVG Repo Mixer Tools -->
<svg height="800px" width="800px" version="1.1" id="Layer_1" xmlns="http://www.w3.org/2000/svg" xmlns:xlink="http://www.w3.org/1999/xlink" 
	 viewBox="0 0 512 512" xml:space="preserve">
<polygon style="fill:#FF6243;" points="367.726,512 144.085,512 97.471,149.02 414.34,149.02 "/>
<polygon style="fill:#CD2A00;" points="392.293,320.696 303.353,320.696 209.885,320.696 119.775,320.696 131.126,411.093 
	203.938,411.093 301.926,411.093 380.685,411.093 "/>
<g style="opacity:0.47;">
	<path style="fill:#CD2A00;" d="M141.183,328.519c-4.321,0-7.823-3.503-7.823-7.823V182.398c0-4.32,3.502-7.823,7.823-7.823
		s7.823,3.503,7.823,7.823v138.298C149.006,325.016,145.504,328.519,141.183,328.519z"/>
</g>
<g style="opacity:0.47;">
	<path style="fill:#CD2A00;" d="M174.56,328.519c-4.321,0-7.823-3.503-7.823-7.823V182.398c0-4.32,3.502-7.823,7.823-7.823
		s7.823,3.503,7.823,7.823v138.298C182.383,325.016,178.882,328.519,174.56,328.519z"/>
</g>
<g style="opacity:0.47;">
	<path style="fill:#CD2A00;" d="M207.938,328.519c-4.321,0-7.823-3.503-7.823-7.823V182.398c0-4.32,3.502-7.823,7.823-7.823
		s7.823,3.503,7.823,7.823v138.298C215.761,325.016,212.26,328.519,207.938,328.519z"/>
</g>
<g style="opacity:0.47;">
	<path style="fill:#CD2A00;" d="M241.316,309.208c-4.321,0-7.823-3.503-7.823-7.823V182.398c0-4.32,3.502-7.823,7.823-7.823
		s7.823,3.503,7.823,7.823v118.988C249.139,305.706,245.637,309.208,241.316,309.208z"/>
</g>
<g style="opacity:0.47;">
	<path style="fill:#CD2A00;" d="M274.694,309.208c-4.321,0-7.823-3.503-7.823-7.823V182.398c0-4.32,3.502-7.823,7.823-7.823
		s7.823,3.503,7.823,7.823v118.988C282.517,305.706,279.015,309.208,274.694,309.208z"/>
</g>
<g style="opacity:0.47;">
	<path style="fill:#CD2A00;" d="M308.071,328.519c-4.321,0-7.823-3.503-7.823-7.823V182.398c0-4.32,3.502-7.823,7.823-7.823
		s7.823,3.503,7.823,7.823v138.298C315.894,325.016,312.393,328.519,308.071,328.519z"/>
</g>
<g style="opacity:0.47;">
	<path style="fill:#CD2A00;" d="M341.449,328.519c-4.321,0-7.823-3.503-7.823-7.823V182.398c0-4.32,3.502-7.823,7.823-7.823
		s7.823,3.503,7.823,7.823v138.298C349.272,325.016,345.771,328.519,341.449,328.519z"/>
</g>
<g style="opacity:0.47;">
	<path style="fill:#CD2A00;" d="M374.827,328.519c-4.321,0-7.823-3.503-7.823-7.823V182.398c0-4.32,3.502-7.823,7.823-7.823
		s7.823,3.503,7.823,7.823v138.298C382.65,325.016,379.148,328.519,374.827,328.519z"/>
</g>
<path style="fill:#FFE477;" d="M112.499,149.02c0,0-16.167-8.866-6.258-21.383s17.21-5.737,19.818-22.426
	c2.608-16.689,13.038-17.21,28.684-32.856s19.297-44.33,44.33-40.679s27.119,4.698,35.464-13.038s26.191-27.119,47.256-8.344
	c21.064,18.775,4.897,35.464,18.457,36.507c13.56,1.043,23.99-15.646,41.201-5.215c17.21,10.431,32.856,17.732,18.775,27.119
	s2.086,21.904,14.603,19.818c12.517-2.086,6.258,34.421,19.297,33.899c13.038-0.522,15.124,26.598,15.124,26.598"/>
<circle style="fill:#AB2300;" cx="255.903" cy="365.893" r="64.509"/>
<path style="opacity:0.14;fill:#CD2A00;enable-background:new    ;" d="M409.437,149.02c0,0-2.086-27.119-15.124-26.598
	c-13.038,0.522-6.78-35.985-19.297-33.899c-12.517,2.086-28.684-10.431-14.603-19.818s-1.565-16.689-18.775-27.119
	c-17.21-10.431-27.641,6.258-41.201,5.215c-13.56-1.043,2.608-17.732-18.457-36.507c-21.064-18.775-38.911-9.392-47.256,8.344
	c-0.427,0.907-0.833,1.752-1.232,2.564c7.075,13.916-1.082,24.764,9.764,25.599c13.56,1.043,23.99-15.646,41.201-5.215
	c17.21,10.431,32.856,17.732,18.775,27.119c-14.081,9.387,2.086,21.904,14.603,19.818c12.517-2.086,6.258,34.421,19.297,33.899
	c13.038-0.522,15.124,26.598,15.124,26.598h5.092l-28.508,221.985l-5.148,40.088l-12.958,100.906h57.18l12.958-100.906l5.149-40.088
	l28.508-221.985L409.437,149.02L409.437,149.02z"/>
</svg>